<svg width="34" height="34" viewBox="0 0 34 34" fill="none" xmlns="http://www.w3.org/2000/svg">
<path d="M17.0002 2.8335C11.5177 2.8335 7.0835 7.26766 7.0835 12.7502C7.0835 20.1877 17.0002 31.1668 17.0002 31.1668C17.0002 31.1668 26.9168 20.1877 26.9168 12.7502C26.9168 7.26766 22.4827 2.8335 17.0002 2.8335ZM17.0002 16.2918C16.0609 16.2918 15.16 15.9187 14.4958 15.2545C13.8316 14.5903 13.4585 13.6895 13.4585 12.7502C13.4585 11.8109 13.8316 10.91 14.4958 10.2458C15.16 9.58164 16.0609 9.2085 17.0002 9.2085C17.9395 9.2085 18.8403 9.58164 19.5045 10.2458C20.1687 10.91 20.5418 11.8109 20.5418 12.7502C20.5418 13.6895 20.1687 14.5903 19.5045 15.2545C18.8403 15.9187 17.9395 16.2918 17.0002 16.2918Z" fill="#FEB703"/>
</svg>
